<svg xmlns="http://www.w3.org/2000/svg" xml:space="preserve" style="fill-rule:evenodd;clip-rule:evenodd;stroke-linejoin:round;stroke-miterlimit:2" viewBox="0 0 187 69"><path d="m.202 0-.19-.716h.097l.109.469c.012.05.022.098.031.147l.032-.132.136-.484h.114l.103.362c.026.09.044.175.055.254.01-.045.021-.097.036-.156l.112-.46h.096L.736 0H.645L.494-.545a1.48 1.48 0 0 1-.022-.084l-.021.084L.299 0H.202Z" style="fill:#e0e0e0;fill-rule:nonzero" transform="matrix(11.81193 0 0 12.83323 80.437 58.936)"/><path d="m.421-.167.091.011a.228.228 0 0 1-.08.124.24.24 0 0 1-.148.044.242.242 0 0 1-.181-.07.278.278 0 0 1-.066-.197c0-.087.022-.155.067-.203A.228.228 0 0 1 .279-.53a.22.22 0 0 1 .17.071.28.28 0 0 1 .066.199l-.001.023H.127c.004.057.02.101.049.131s.065.045.108.045c.032 0 .06-.008.083-.025a.172.172 0 0 0 .054-.081ZM.132-.309h.29a.177.177 0 0 0-.033-.098.136.136 0 0 0-.109-.051.139.139 0 0 0-.102.041.158.158 0 0 0-.046.108Z" style="fill:#e0e0e0;fill-rule:nonzero" transform="matrix(11.81193 0 0 12.83323 91.372 58.936)"/><path d="M.147 0H.065v-.716h.088v.256a.173.173 0 0 1 .142-.07c.032 0 .063.006.091.019a.188.188 0 0 1 .07.054.268.268 0 0 1 .044.084c.01.033.015.068.015.106a.296.296 0 0 1-.066.206.207.207 0 0 1-.158.073.166.166 0 0 1-.144-.077V0ZM.146-.263c0 .062.008.107.025.135.028.045.065.067.113.067a.124.124 0 0 0 .099-.05C.411-.144.425-.194.425-.26c0-.067-.013-.117-.04-.15a.123.123 0 0 0-.097-.048.127.127 0 0 0-.1.05C.16-.375.146-.326.146-.263Z" style="fill:#e0e0e0;fill-rule:nonzero" transform="matrix(11.81193 0 0 12.83323 97.942 58.936)"/><path d="M.042-.189.13-.201c.01.05.027.086.051.108A.13.13 0 0 0 .27-.06a.146.146 0 0 0 .147-.149.135.135 0 0 0-.14-.14.29.29 0 0 0-.062.01l.01-.077A.184.184 0 0 0 .34-.444c.03-.02.045-.05.045-.091a.11.11 0 0 0-.032-.08.117.117 0 0 0-.085-.031.115.115 0 0 0-.085.032.154.154 0 0 0-.044.096L.051-.533A.226.226 0 0 1 .124-.67a.208.208 0 0 1 .142-.049c.039 0 .075.009.108.025a.18.18 0 0 1 .075.069c.018.029.027.06.027.092a.16.16 0 0 1-.025.085.173.173 0 0 1-.074.06.17.17 0 0 1 .099.061.188.188 0 0 1 .035.116.212.212 0 0 1-.069.159.24.24 0 0 1-.172.065.229.229 0 0 1-.157-.056.221.221 0 0 1-.071-.146Z" style="fill:#e0e0e0;fill-rule:nonzero" transform="matrix(11.81193 0 0 12.83323 104.511 58.936)"/><path d="M.412-.281v-.084h.303V-.1a.506.506 0 0 1-.144.084.418.418 0 0 1-.152.028.412.412 0 0 1-.192-.045.3.3 0 0 1-.13-.131.45.45 0 0 1 0-.386.288.288 0 0 1 .126-.134.394.394 0 0 1 .189-.044c.051 0 .098.008.14.025.042.017.075.04.098.07.024.03.042.069.055.117l-.086.024a.265.265 0 0 0-.04-.086.161.161 0 0 0-.068-.05.291.291 0 0 0-.211.001.205.205 0 0 0-.077.052.251.251 0 0 0-.045.071.377.377 0 0 0-.027.144.35.35 0 0 0 .033.16.212.212 0 0 0 .096.096.306.306 0 0 0 .254.007.356.356 0 0 0 .089-.05v-.134H.412Z" style="fill:#e0e0e0;fill-rule:nonzero" transform="matrix(11.81193 0 0 12.83323 114.362 58.936)"/><path d="M.404-.064a.33.33 0 0 1-.094.059.278.278 0 0 1-.097.017.187.187 0 0 1-.131-.042.136.136 0 0 1-.046-.107c0-.025.006-.048.017-.069a.15.15 0 0 1 .046-.051.226.226 0 0 1 .063-.029.685.685 0 0 1 .078-.013.764.764 0 0 0 .157-.03v-.023c0-.036-.008-.061-.024-.076-.023-.02-.056-.03-.101-.03a.158.158 0 0 0-.091.022c-.02.015-.034.04-.044.077L.051-.371A.22.22 0 0 1 .09-.46a.175.175 0 0 1 .077-.052.357.357 0 0 1 .118-.018c.044 0 .08.005.108.015a.144.144 0 0 1 .061.04.129.129 0 0 1 .027.059.474.474 0 0 1 .005.082v.117c0 .081.002.133.005.155A.212.212 0 0 0 .514 0H.422a.2.2 0 0 1-.018-.064ZM.397-.26a.645.645 0 0 1-.144.033.29.29 0 0 0-.076.018.076.076 0 0 0-.035.028.079.079 0 0 0 .014.1c.018.016.044.024.078.024a.194.194 0 0 0 .091-.022.142.142 0 0 0 .058-.061.22.22 0 0 0 .014-.088V-.26Z" style="fill:#e0e0e0;fill-rule:nonzero" transform="matrix(11.81193 0 0 12.83323 123.55 58.936)"/><path d="M.066 0v-.519h.079v.073A.178.178 0 0 1 .302-.53c.038 0 .07.008.094.024a.125.125 0 0 1 .052.067.186.186 0 0 1 .16-.091c.052 0 .091.014.119.042.028.029.042.073.042.132V0H.681v-.327a.272.272 0 0 0-.008-.076.074.074 0 0 0-.031-.037.102.102 0 0 0-.053-.014.123.123 0 0 0-.091.036c-.024.025-.036.063-.036.117V0H.374v-.337a.152.152 0 0 0-.021-.088C.338-.444.315-.454.282-.454a.125.125 0 0 0-.068.019.108.108 0 0 0-.046.058.332.332 0 0 0-.014.108V0H.066Z" style="fill:#e0e0e0;fill-rule:nonzero" transform="matrix(11.81193 0 0 12.83323 130.119 58.936)"/><path d="m.421-.167.091.011a.228.228 0 0 1-.08.124.24.24 0 0 1-.148.044.242.242 0 0 1-.181-.07.278.278 0 0 1-.066-.197c0-.087.022-.155.067-.203A.228.228 0 0 1 .279-.53a.22.22 0 0 1 .17.071.28.28 0 0 1 .066.199l-.001.023H.127c.004.057.02.101.049.131s.065.045.108.045c.032 0 .06-.008.083-.025a.172.172 0 0 0 .054-.081ZM.132-.309h.29a.177.177 0 0 0-.033-.098.136.136 0 0 0-.109-.051.139.139 0 0 0-.102.041.158.158 0 0 0-.046.108Z" style="fill:#e0e0e0;fill-rule:nonzero" transform="matrix(11.81193 0 0 12.83323 139.958 58.936)"/><path d="M.079 0v-.716h.518v.085H.174v.219H.57v.084H.174v.244h.439V0H.079Z" style="fill:#e0e0e0;fill-rule:nonzero" transform="matrix(11.81193 0 0 12.83323 149.81 58.936)"/><path d="M.066 0v-.519h.079v.074A.186.186 0 0 1 .31-.53c.031 0 .06.005.086.017a.137.137 0 0 1 .059.044c.013.018.022.04.027.065a.423.423 0 0 1 .005.085V0H.399v-.315a.238.238 0 0 0-.01-.081.086.086 0 0 0-.036-.042.14.14 0 0 0-.158.02C.167-.395.154-.35.154-.283V0H.066Z" style="fill:#e0e0e0;fill-rule:nonzero" transform="matrix(11.81193 0 0 12.83323 157.688 58.936)"/><path d="m.05.043.085.013c.004.026.014.045.03.057a.142.142 0 0 0 .089.025.156.156 0 0 0 .095-.025.121.121 0 0 0 .045-.068A.659.659 0 0 0 .4-.068.182.182 0 0 1 .256 0a.196.196 0 0 1-.165-.077.299.299 0 0 1-.059-.185c0-.05.009-.095.027-.137a.216.216 0 0 1 .078-.097.209.209 0 0 1 .12-.034c.061 0 .111.024.151.074v-.063h.081v.449c0 .08-.008.138-.024.171a.18.18 0 0 1-.079.08.262.262 0 0 1-.131.029.247.247 0 0 1-.15-.041C.067.141.049.099.05.043Zm.073-.312c0 .068.013.118.04.149a.127.127 0 0 0 .102.047c.04 0 .074-.015.101-.046.028-.031.041-.08.041-.147 0-.063-.014-.111-.042-.143a.132.132 0 0 0-.102-.049.125.125 0 0 0-.099.048c-.028.032-.041.079-.041.141Z" style="fill:#e0e0e0;fill-rule:nonzero" transform="matrix(11.81193 0 0 12.83323 164.257 58.936)"/><path d="M.066-.615v-.101h.088v.101H.066Zm0 .615v-.519h.088V0H.066Z" style="fill:#e0e0e0;fill-rule:nonzero" transform="matrix(11.81193 0 0 12.83323 170.826 58.936)"/><path d="M.066 0v-.519h.079v.074A.186.186 0 0 1 .31-.53c.031 0 .06.005.086.017a.137.137 0 0 1 .059.044c.013.018.022.04.027.065a.423.423 0 0 1 .005.085V0H.399v-.315a.238.238 0 0 0-.01-.081.086.086 0 0 0-.036-.042.14.14 0 0 0-.158.02C.167-.395.154-.35.154-.283V0H.066Z" style="fill:#e0e0e0;fill-rule:nonzero" transform="matrix(11.81193 0 0 12.83323 173.45 58.936)"/><path d="m.421-.167.091.011a.228.228 0 0 1-.08.124.24.24 0 0 1-.148.044.242.242 0 0 1-.181-.07.278.278 0 0 1-.066-.197c0-.087.022-.155.067-.203A.228.228 0 0 1 .279-.53a.22.22 0 0 1 .17.071.28.28 0 0 1 .066.199l-.001.023H.127c.004.057.02.101.049.131s.065.045.108.045c.032 0 .06-.008.083-.025a.172.172 0 0 0 .054-.081ZM.132-.309h.29a.177.177 0 0 0-.033-.098.136.136 0 0 0-.109-.051.139.139 0 0 0-.102.041.158.158 0 0 0-.046.108Z" style="fill:#e0e0e0;fill-rule:nonzero" transform="matrix(11.81193 0 0 12.83323 180.02 58.936)"/><path d="M.622-.215a.215.215 0 0 1-.033.117.233.233 0 0 1-.098.081.376.376 0 0 1-.153.029.34.34 0 0 1-.175-.04.233.233 0 0 1-.079-.077.169.169 0 0 1-.031-.093c0-.018.006-.033.019-.045a.059.059 0 0 1 .046-.019.06.06 0 0 1 .039.014.11.11 0 0 1 .027.044.251.251 0 0 0 .03.057c.01.015.025.028.044.038.02.01.045.015.076.015.043 0 .078-.01.105-.03a.09.09 0 0 0 .04-.075.078.078 0 0 0-.022-.058.136.136 0 0 0-.056-.034 1.007 1.007 0 0 0-.092-.025.698.698 0 0 1-.129-.042.21.21 0 0 1-.083-.066.173.173 0 0 1-.03-.104c0-.039.011-.074.032-.105a.209.209 0 0 1 .093-.07.374.374 0 0 1 .144-.025c.044 0 .082.005.114.016a.245.245 0 0 1 .08.044.183.183 0 0 1 .046.057c.01.02.015.039.015.058a.067.067 0 0 1-.018.046.06.06 0 0 1-.046.021C.51-.486.498-.49.489-.498a.169.169 0 0 1-.028-.041.186.186 0 0 0-.047-.063C.396-.617.367-.625.326-.625a.148.148 0 0 0-.09.025c-.023.016-.035.036-.035.059 0 .014.004.027.012.037a.096.096 0 0 0 .032.027.379.379 0 0 0 .111.036c.04.01.077.02.11.031.032.012.06.026.083.042a.17.17 0 0 1 .054.062.194.194 0 0 1 .019.091Z" style="fill:#fff;fill-rule:nonzero" transform="matrix(35.77847 0 0 32.65345 78.154 43.166)"/><path d="M.356-.279H.223v.203a.098.098 0 0 1-.02.066.067.067 0 0 1-.052.022.067.067 0 0 1-.053-.022.097.097 0 0 1-.02-.065v-.552c0-.032.007-.055.022-.068.015-.014.038-.021.07-.021h.186c.055 0 .097.004.127.013a.198.198 0 0 1 .076.04.183.183 0 0 1 .048.07.243.243 0 0 1 .017.092c0 .073-.022.128-.067.166-.045.037-.112.056-.201.056ZM.321-.607H.223v.219h.098a.288.288 0 0 0 .085-.011.101.101 0 0 0 .053-.035.105.105 0 0 0 .018-.064.106.106 0 0 0-.028-.077C.428-.596.386-.607.321-.607Z" style="fill:#fff;fill-rule:nonzero" transform="matrix(35.77847 0 0 32.65345 102.018 43.166)"/><path d="M.084-.076V-.64c0-.029.007-.051.02-.066a.066.066 0 0 1 .052-.022c.022 0 .039.007.053.022.013.014.02.036.02.066v.564c0 .029-.007.052-.02.066a.068.068 0 0 1-.053.022.067.067 0 0 1-.052-.022.098.098 0 0 1-.02-.066Z" style="fill:#fff;fill-rule:nonzero" transform="matrix(35.77847 0 0 32.65345 125.879 43.166)"/><path d="M.224-.64v.251l.285-.297a.236.236 0 0 1 .035-.032.061.061 0 0 1 .038-.01c.021 0 .038.006.051.018a.062.062 0 0 1 .019.045c0 .021-.011.042-.033.063l-.176.167.203.291c.014.02.025.038.032.053.007.015.011.03.011.044 0 .016-.006.03-.019.042a.073.073 0 0 1-.051.017.083.083 0 0 1-.049-.013.095.095 0 0 1-.032-.034L.514-.074.343-.338l-.119.114v.148c0 .03-.007.052-.02.066a.07.07 0 0 1-.053.022.07.07 0 0 1-.036-.01.065.065 0 0 1-.026-.026.08.08 0 0 1-.008-.032.62.62 0 0 1-.002-.052V-.64c0-.029.007-.051.019-.066a.067.067 0 0 1 .053-.022c.022 0 .039.007.053.022.013.014.02.036.02.066Z" style="fill:#fff;fill-rule:nonzero" transform="matrix(35.77847 0 0 32.65345 137.078 43.166)"/><path d="M.55-.604H.223v.176h.301c.022 0 .039.005.049.015a.05.05 0 0 1 .017.039c0 .016-.006.03-.016.04-.011.01-.028.015-.05.015H.223v.204h.338c.023 0 .04.005.052.016.011.01.017.024.017.042a.053.053 0 0 1-.017.041C.601-.005.584 0 .561 0H.167C.135 0 .113-.007.099-.021.085-.035.078-.058.078-.089v-.538c0-.021.003-.038.009-.051a.063.063 0 0 1 .029-.029.126.126 0 0 1 .051-.009H.55c.023 0 .04.005.051.016.012.01.017.023.017.04s-.005.03-.017.041C.59-.609.573-.604.55-.604Z" style="fill:#fff;fill-rule:nonzero" transform="matrix(35.77847 0 0 32.65345 163.563 43.166)"/><path d="M112.268 69.765c-.628 0-.942 0-1.02.188-.078.189.144.411.588.855l82.231 82.231c.707.706 1.06 1.059 1.246 1.509.186.449.186.948.186 1.948v31.494c0 1.256 0 1.884-.377 2.04-.378.157-.822-.287-1.71-1.175L60.46 55.903c-.706-.707-1.06-1.06-1.246-1.509-.186-.45-.186-.949-.186-1.948V20.951c0-1.256 0-1.884.378-2.04.377-.156.821.288 1.709 1.176l40.087 40.087c.089.088.133.132.189.156.056.023.118.023.243.023l46.553-.001c.125 0 .187 0 .244.024.056.023.1.067.188.155l45.448 45.448c.707.707 1.06 1.06 1.509 1.246.449.186.949.186 1.948.186l3.818.001c.999 0 1.499 0 1.948.186.449.186.803.539 1.509 1.246l5.893 5.893c.888.888 1.332 1.332 1.176 1.709-.156.378-.784.378-2.04.378h-39.362c-.999 0-1.499 0-1.948-.187-.449-.186-.803-.539-1.509-1.245l-45.448-45.448c-.089-.089-.133-.133-.189-.156-.056-.023-.118-.023-.243-.023h-8.861Z" style="fill:url(#a);fill-rule:nonzero" transform="matrix(.29533 0 0 .26953 -1.99 0)"/><path d="M112.268 69.765c-.628 0-.942 0-1.02.188-.078.189.144.411.588.855l82.231 82.231c.707.706 1.06 1.059 1.246 1.509.186.449.186.948.186 1.948v31.494c0 1.256 0 1.884-.377 2.04-.378.157-.822-.287-1.71-1.175L60.46 55.903c-.706-.707-1.06-1.06-1.246-1.509-.186-.45-.186-.949-.186-1.948V20.951c0-1.256 0-1.884.378-2.04.377-.156.821.288 1.709 1.176l40.087 40.087c.089.088.133.132.189.156.056.023.118.023.243.023l46.553-.001c.125 0 .187 0 .244.024.056.023.1.067.188.155l45.448 45.448c.707.707 1.06 1.06 1.509 1.246.449.186.949.186 1.948.186l3.818.001c.999 0 1.499 0 1.948.186.449.186.803.539 1.509 1.246l5.893 5.893c.888.888 1.332 1.332 1.176 1.709-.156.378-.784.378-2.04.378h-39.362c-.999 0-1.499 0-1.948-.187-.449-.186-.803-.539-1.509-1.245l-45.448-45.448c-.089-.089-.133-.133-.189-.156-.056-.023-.118-.023-.243-.023h-8.861Z" style="fill:#0057ff;fill-opacity:.2;fill-rule:nonzero" transform="matrix(.29533 0 0 .26953 -1.99 0)"/><path d="M59.028 68.01c0-1.256 0-1.884.378-2.04.377-.157.821.287 1.709 1.175l132.952 132.952c.707.707 1.06 1.06 1.246 1.509.186.45.186.949.186 1.948v31.495c0 1.256 0 1.884-.377 2.04-.378.156-.822-.287-1.71-1.175l-40.088-40.089c-.088-.088-.132-.132-.188-.155-.056-.024-.119-.024-.244-.024H106.34c-.125 0-.187 0-.243-.023-.056-.023-.1-.067-.189-.156L60.46 150.02c-.706-.707-1.06-1.06-1.509-1.246-.449-.186-.949-.186-1.948-.186h-3.566c-.999 0-1.499 0-1.948-.186-.449-.187-.803-.54-1.509-1.246l-5.894-5.894c-.888-.888-1.332-1.332-1.175-1.709.156-.377.784-.377 2.04-.377h39.111c.999 0 1.499 0 1.948.186.449.186.803.539 1.509 1.246l45.448 45.448c.088.088.132.132.189.155.056.024.118.024.243.024h8.859c.628 0 .942 0 1.02-.189.078-.189-.144-.411-.588-.855l-82.23-82.23c-.706-.706-1.06-1.059-1.246-1.509-.186-.449-.186-.948-.186-1.948V68.01Z" style="fill:url(#b);fill-rule:nonzero" transform="matrix(.29533 0 0 .26953 -1.99 0)"/><path d="M59.028 68.01c0-1.256 0-1.884.378-2.04.377-.157.821.287 1.709 1.175l132.952 132.952c.707.707 1.06 1.06 1.246 1.509.186.45.186.949.186 1.948v31.495c0 1.256 0 1.884-.377 2.04-.378.156-.822-.287-1.71-1.175l-40.088-40.089c-.088-.088-.132-.132-.188-.155-.056-.024-.119-.024-.244-.024H106.34c-.125 0-.187 0-.243-.023-.056-.023-.1-.067-.189-.156L60.46 150.02c-.706-.707-1.06-1.06-1.509-1.246-.449-.186-.949-.186-1.948-.186h-3.566c-.999 0-1.499 0-1.948-.186-.449-.187-.803-.54-1.509-1.246l-5.894-5.894c-.888-.888-1.332-1.332-1.175-1.709.156-.377.784-.377 2.04-.377h39.111c.999 0 1.499 0 1.948.186.449.186.803.539 1.509 1.246l45.448 45.448c.088.088.132.132.189.155.056.024.118.024.243.024h8.859c.628 0 .942 0 1.02-.189.078-.189-.144-.411-.588-.855l-82.23-82.23c-.706-.706-1.06-1.059-1.246-1.509-.186-.449-.186-.948-.186-1.948V68.01Z" style="fill:#0057ff;fill-opacity:.2;fill-rule:nonzero" transform="matrix(.29533 0 0 .26953 -1.99 0)"/><defs><linearGradient id="a" x1="0" x2="1" y1="0" y2="0" gradientTransform="matrix(0 220 -220 0 127.389 18)" gradientUnits="userSpaceOnUse"><stop offset="0" style="stop-color:#0ff;stop-opacity:1"/><stop offset=".5" style="stop-color:#2e75ff;stop-opacity:1"/><stop offset="1" style="stop-color:#7000ff;stop-opacity:1"/></linearGradient><linearGradient id="b" x1="0" x2="1" y1="0" y2="0" gradientTransform="matrix(0 220 -220 0 127.389 18)" gradientUnits="userSpaceOnUse"><stop offset="0" style="stop-color:#0ff;stop-opacity:1"/><stop offset=".5" style="stop-color:#2e75ff;stop-opacity:1"/><stop offset="1" style="stop-color:#7000ff;stop-opacity:1"/></linearGradient></defs></svg>