<?xml version="1.0" encoding="UTF-8" standalone="no"?>
<!DOCTYPE svg PUBLIC "-//W3C//DTD SVG 1.1//EN" "http://www.w3.org/Graphics/SVG/1.1/DTD/svg11.dtd">
<svg width="100%" height="100%" viewBox="0 0 1024 414" version="1.1" xmlns="http://www.w3.org/2000/svg" xmlns:xlink="http://www.w3.org/1999/xlink" xml:space="preserve" xmlns:serif="http://www.serif.com/" style="fill-rule:evenodd;clip-rule:evenodd;stroke-linejoin:round;stroke-miterlimit:2;">
    <g id="godot_engine_logo_2017_curves-01" transform="matrix(1.25,0,0,-1.25,-100.533,637.332)">
        <g id="icon.svg" transform="matrix(1.05064,0,0,-1.05064,237.309,344.266)">
            <g transform="matrix(1,0,0,1,-128,-128)">
                <path d="M112.268,69.765C111.64,69.765 111.326,69.765 111.248,69.953C111.17,70.142 111.392,70.364 111.836,70.808L194.067,153.039C194.774,153.745 195.127,154.098 195.313,154.548C195.499,154.997 195.499,155.496 195.499,156.496L195.499,187.99C195.499,189.246 195.499,189.874 195.122,190.03C194.744,190.187 194.3,189.743 193.412,188.855L60.46,55.903C59.754,55.196 59.401,54.843 59.214,54.394C59.028,53.944 59.028,53.445 59.028,52.446L59.028,20.951C59.028,19.695 59.028,19.067 59.406,18.911C59.783,18.755 60.227,19.199 61.115,20.087L101.202,60.174C101.291,60.262 101.335,60.306 101.391,60.33C101.447,60.353 101.509,60.353 101.634,60.353L148.187,60.352C148.312,60.352 148.374,60.352 148.431,60.376C148.487,60.399 148.531,60.443 148.619,60.531L194.067,105.979C194.774,106.686 195.127,107.039 195.576,107.225C196.025,107.411 196.525,107.411 197.524,107.411L201.342,107.412C202.341,107.412 202.841,107.412 203.29,107.598C203.739,107.784 204.093,108.137 204.799,108.844L210.692,114.737C211.58,115.625 212.024,116.069 211.868,116.446C211.712,116.824 211.084,116.824 209.828,116.824L170.466,116.824C169.467,116.824 168.967,116.824 168.518,116.637C168.069,116.451 167.715,116.098 167.009,115.392L121.561,69.944C121.472,69.855 121.428,69.811 121.372,69.788C121.316,69.765 121.254,69.765 121.129,69.765L112.268,69.765Z" style="fill:url(#_Linear1);fill-rule:nonzero;"/>
                <path d="M112.268,69.765C111.64,69.765 111.326,69.765 111.248,69.953C111.17,70.142 111.392,70.364 111.836,70.808L194.067,153.039C194.774,153.745 195.127,154.098 195.313,154.548C195.499,154.997 195.499,155.496 195.499,156.496L195.499,187.99C195.499,189.246 195.499,189.874 195.122,190.03C194.744,190.187 194.3,189.743 193.412,188.855L60.46,55.903C59.754,55.196 59.401,54.843 59.214,54.394C59.028,53.944 59.028,53.445 59.028,52.446L59.028,20.951C59.028,19.695 59.028,19.067 59.406,18.911C59.783,18.755 60.227,19.199 61.115,20.087L101.202,60.174C101.291,60.262 101.335,60.306 101.391,60.33C101.447,60.353 101.509,60.353 101.634,60.353L148.187,60.352C148.312,60.352 148.374,60.352 148.431,60.376C148.487,60.399 148.531,60.443 148.619,60.531L194.067,105.979C194.774,106.686 195.127,107.039 195.576,107.225C196.025,107.411 196.525,107.411 197.524,107.411L201.342,107.412C202.341,107.412 202.841,107.412 203.29,107.598C203.739,107.784 204.093,108.137 204.799,108.844L210.692,114.737C211.58,115.625 212.024,116.069 211.868,116.446C211.712,116.824 211.084,116.824 209.828,116.824L170.466,116.824C169.467,116.824 168.967,116.824 168.518,116.637C168.069,116.451 167.715,116.098 167.009,115.392L121.561,69.944C121.472,69.855 121.428,69.811 121.372,69.788C121.316,69.765 121.254,69.765 121.129,69.765L112.268,69.765Z" style="fill:rgb(0,87,255);fill-opacity:0.2;fill-rule:nonzero;"/>
                <path d="M59.028,68.01C59.028,66.754 59.028,66.126 59.406,65.97C59.783,65.813 60.227,66.257 61.115,67.145L194.067,200.097C194.774,200.804 195.127,201.157 195.313,201.606C195.499,202.056 195.499,202.555 195.499,203.554L195.499,235.049C195.499,236.305 195.499,236.933 195.122,237.089C194.744,237.245 194.3,236.802 193.412,235.914L153.324,195.825C153.236,195.737 153.192,195.693 153.136,195.67C153.08,195.646 153.017,195.646 152.892,195.646L106.34,195.646C106.215,195.646 106.153,195.646 106.097,195.623C106.041,195.6 105.997,195.556 105.908,195.467L60.46,150.02C59.754,149.313 59.401,148.96 58.951,148.774C58.502,148.588 58.003,148.588 57.003,148.588L53.437,148.588C52.438,148.588 51.938,148.588 51.489,148.402C51.04,148.215 50.686,147.862 49.98,147.156L44.087,141.262C43.199,140.374 42.755,139.93 42.911,139.553C43.067,139.176 43.695,139.176 44.951,139.176L84.062,139.176C85.061,139.176 85.561,139.176 86.01,139.362C86.459,139.548 86.813,139.901 87.519,140.608L132.967,186.056C133.055,186.144 133.099,186.188 133.156,186.211C133.212,186.235 133.274,186.235 133.399,186.235L142.258,186.235C142.886,186.235 143.2,186.235 143.278,186.046C143.356,185.857 143.134,185.635 142.69,185.191L60.46,102.961C59.754,102.255 59.401,101.902 59.214,101.452C59.028,101.003 59.028,100.504 59.028,99.504L59.028,68.01Z" style="fill:url(#_Linear2);fill-rule:nonzero;"/>
                <path d="M59.028,68.01C59.028,66.754 59.028,66.126 59.406,65.97C59.783,65.813 60.227,66.257 61.115,67.145L194.067,200.097C194.774,200.804 195.127,201.157 195.313,201.606C195.499,202.056 195.499,202.555 195.499,203.554L195.499,235.049C195.499,236.305 195.499,236.933 195.122,237.089C194.744,237.245 194.3,236.802 193.412,235.914L153.324,195.825C153.236,195.737 153.192,195.693 153.136,195.67C153.08,195.646 153.017,195.646 152.892,195.646L106.34,195.646C106.215,195.646 106.153,195.646 106.097,195.623C106.041,195.6 105.997,195.556 105.908,195.467L60.46,150.02C59.754,149.313 59.401,148.96 58.951,148.774C58.502,148.588 58.003,148.588 57.003,148.588L53.437,148.588C52.438,148.588 51.938,148.588 51.489,148.402C51.04,148.215 50.686,147.862 49.98,147.156L44.087,141.262C43.199,140.374 42.755,139.93 42.911,139.553C43.067,139.176 43.695,139.176 44.951,139.176L84.062,139.176C85.061,139.176 85.561,139.176 86.01,139.362C86.459,139.548 86.813,139.901 87.519,140.608L132.967,186.056C133.055,186.144 133.099,186.188 133.156,186.211C133.212,186.235 133.274,186.235 133.399,186.235L142.258,186.235C142.886,186.235 143.2,186.235 143.278,186.046C143.356,185.857 143.134,185.635 142.69,185.191L60.46,102.961C59.754,102.255 59.401,101.902 59.214,101.452C59.028,101.003 59.028,100.504 59.028,99.504L59.028,68.01Z" style="fill:rgb(0,87,255);fill-opacity:0.2;fill-rule:nonzero;"/>
            </g>
        </g>
        <g id="文字" transform="matrix(1,0,0,1,-60.8,20.8)">
            <g transform="matrix(1.67608,0,0,-1.67608,-316.091,748.345)">
                <g transform="matrix(20,0,0,20,445.641,288.579)">
                    <path d="M0.074,-0L0.074,-0.716L0.217,-0.716L0.386,-0.209C0.402,-0.162 0.413,-0.126 0.42,-0.103C0.429,-0.129 0.441,-0.167 0.458,-0.218L0.63,-0.716L0.757,-0.716L0.757,-0L0.666,-0L0.666,-0.599L0.458,-0L0.373,-0L0.166,-0.609L0.166,-0L0.074,-0Z" style="fill:rgb(109,110,113);fill-rule:nonzero;"/>
                </g>
                <g transform="matrix(20,0,0,20,462.301,288.579)">
                    <path d="M0.421,-0.167L0.512,-0.156C0.497,-0.103 0.471,-0.062 0.432,-0.032C0.393,-0.003 0.344,0.012 0.284,0.012C0.208,0.012 0.148,-0.012 0.103,-0.058C0.059,-0.105 0.037,-0.171 0.037,-0.255C0.037,-0.342 0.059,-0.41 0.104,-0.458C0.149,-0.506 0.207,-0.53 0.279,-0.53C0.348,-0.53 0.405,-0.507 0.449,-0.459C0.493,-0.412 0.515,-0.346 0.515,-0.26C0.515,-0.255 0.514,-0.247 0.514,-0.237L0.127,-0.237C0.131,-0.18 0.147,-0.136 0.176,-0.106C0.205,-0.076 0.241,-0.061 0.284,-0.061C0.316,-0.061 0.344,-0.069 0.367,-0.086C0.389,-0.103 0.408,-0.13 0.421,-0.167ZM0.132,-0.309L0.422,-0.309C0.418,-0.353 0.407,-0.385 0.389,-0.407C0.361,-0.441 0.324,-0.458 0.28,-0.458C0.239,-0.458 0.205,-0.444 0.178,-0.417C0.15,-0.39 0.135,-0.354 0.132,-0.309Z" style="fill:rgb(109,110,113);fill-rule:nonzero;"/>
                </g>
                <g transform="matrix(20,0,0,20,473.424,288.579)">
                    <path d="M0.258,-0.079L0.271,-0.001C0.246,0.004 0.224,0.007 0.204,0.007C0.172,0.007 0.147,0.002 0.13,-0.008C0.112,-0.018 0.1,-0.032 0.093,-0.048C0.086,-0.065 0.082,-0.099 0.082,-0.152L0.082,-0.45L0.018,-0.45L0.018,-0.519L0.082,-0.519L0.082,-0.647L0.169,-0.7L0.169,-0.519L0.258,-0.519L0.258,-0.45L0.169,-0.45L0.169,-0.147C0.169,-0.122 0.171,-0.106 0.174,-0.099C0.177,-0.091 0.182,-0.086 0.189,-0.082C0.196,-0.077 0.206,-0.075 0.219,-0.075C0.229,-0.075 0.242,-0.076 0.258,-0.079Z" style="fill:rgb(109,110,113);fill-rule:nonzero;"/>
                </g>
                <g transform="matrix(20,0,0,20,478.981,288.579)">
                    <path d="M0.404,-0.064C0.372,-0.036 0.34,-0.017 0.31,-0.005C0.28,0.006 0.248,0.012 0.213,0.012C0.156,0.012 0.113,-0.002 0.082,-0.03C0.051,-0.058 0.036,-0.093 0.036,-0.137C0.036,-0.162 0.042,-0.185 0.053,-0.206C0.065,-0.227 0.08,-0.244 0.099,-0.257C0.118,-0.27 0.139,-0.279 0.162,-0.286C0.179,-0.29 0.205,-0.295 0.24,-0.299C0.311,-0.307 0.363,-0.317 0.397,-0.329C0.397,-0.341 0.397,-0.349 0.397,-0.352C0.397,-0.388 0.389,-0.413 0.373,-0.428C0.35,-0.448 0.317,-0.458 0.272,-0.458C0.231,-0.458 0.201,-0.45 0.181,-0.436C0.161,-0.421 0.147,-0.396 0.137,-0.359L0.051,-0.371C0.059,-0.407 0.072,-0.437 0.09,-0.46C0.108,-0.482 0.134,-0.5 0.167,-0.512C0.201,-0.524 0.241,-0.53 0.285,-0.53C0.329,-0.53 0.365,-0.525 0.393,-0.515C0.421,-0.504 0.441,-0.491 0.454,-0.475C0.467,-0.46 0.476,-0.44 0.481,-0.416C0.484,-0.401 0.486,-0.374 0.486,-0.334L0.486,-0.217C0.486,-0.136 0.488,-0.084 0.491,-0.062C0.495,-0.041 0.503,-0.02 0.514,-0L0.422,-0C0.413,-0.018 0.407,-0.04 0.404,-0.064ZM0.397,-0.26C0.365,-0.247 0.317,-0.236 0.253,-0.227C0.217,-0.222 0.192,-0.216 0.177,-0.209C0.162,-0.203 0.15,-0.193 0.142,-0.181C0.134,-0.168 0.13,-0.154 0.13,-0.139C0.13,-0.116 0.139,-0.096 0.156,-0.081C0.174,-0.065 0.2,-0.057 0.234,-0.057C0.268,-0.057 0.298,-0.065 0.325,-0.079C0.351,-0.094 0.37,-0.114 0.383,-0.14C0.392,-0.16 0.397,-0.189 0.397,-0.228L0.397,-0.26Z" style="fill:rgb(109,110,113);fill-rule:nonzero;"/>
                </g>
                <g transform="matrix(20,0,0,20,490.104,288.579)">
                    <path d="M0.21,-0L0.013,-0.519L0.105,-0.519L0.217,-0.208C0.229,-0.174 0.24,-0.14 0.25,-0.104C0.258,-0.131 0.269,-0.164 0.283,-0.202L0.398,-0.519L0.488,-0.519L0.292,-0L0.21,-0Z" style="fill:rgb(109,110,113);fill-rule:nonzero;"/>
                </g>
                <g transform="matrix(20,0,0,20,500.104,288.579)">
                    <path d="M0.421,-0.167L0.512,-0.156C0.497,-0.103 0.471,-0.062 0.432,-0.032C0.393,-0.003 0.344,0.012 0.284,0.012C0.208,0.012 0.148,-0.012 0.103,-0.058C0.059,-0.105 0.037,-0.171 0.037,-0.255C0.037,-0.342 0.059,-0.41 0.104,-0.458C0.149,-0.506 0.207,-0.53 0.279,-0.53C0.348,-0.53 0.405,-0.507 0.449,-0.459C0.493,-0.412 0.515,-0.346 0.515,-0.26C0.515,-0.255 0.514,-0.247 0.514,-0.237L0.127,-0.237C0.131,-0.18 0.147,-0.136 0.176,-0.106C0.205,-0.076 0.241,-0.061 0.284,-0.061C0.316,-0.061 0.344,-0.069 0.367,-0.086C0.389,-0.103 0.408,-0.13 0.421,-0.167ZM0.132,-0.309L0.422,-0.309C0.418,-0.353 0.407,-0.385 0.389,-0.407C0.361,-0.441 0.324,-0.458 0.28,-0.458C0.239,-0.458 0.205,-0.444 0.178,-0.417C0.15,-0.39 0.135,-0.354 0.132,-0.309Z" style="fill:rgb(109,110,113);fill-rule:nonzero;"/>
                </g>
                <g transform="matrix(20,0,0,20,511.227,288.579)">
                    <path d="M0.065,-0L0.065,-0.519L0.144,-0.519L0.144,-0.44C0.164,-0.477 0.183,-0.501 0.2,-0.513C0.217,-0.524 0.236,-0.53 0.256,-0.53C0.286,-0.53 0.316,-0.521 0.347,-0.502L0.316,-0.42C0.295,-0.433 0.273,-0.439 0.252,-0.439C0.233,-0.439 0.215,-0.434 0.2,-0.422C0.185,-0.411 0.174,-0.395 0.167,-0.374C0.158,-0.343 0.153,-0.309 0.153,-0.271L0.153,-0L0.065,-0Z" style="fill:rgb(109,110,113);fill-rule:nonzero;"/>
                </g>
                <g transform="matrix(20,0,0,20,517.887,288.579)">
                    <path d="M0.031,-0.155L0.118,-0.168C0.123,-0.134 0.136,-0.107 0.158,-0.088C0.181,-0.07 0.212,-0.061 0.252,-0.061C0.292,-0.061 0.322,-0.069 0.342,-0.085C0.361,-0.102 0.371,-0.121 0.371,-0.143C0.371,-0.163 0.362,-0.179 0.345,-0.19C0.333,-0.198 0.303,-0.208 0.255,-0.22C0.191,-0.236 0.146,-0.25 0.121,-0.262C0.096,-0.274 0.078,-0.29 0.065,-0.311C0.052,-0.332 0.045,-0.355 0.045,-0.381C0.045,-0.404 0.051,-0.425 0.061,-0.445C0.072,-0.465 0.086,-0.481 0.104,-0.494C0.118,-0.504 0.137,-0.513 0.16,-0.52C0.184,-0.527 0.209,-0.53 0.236,-0.53C0.277,-0.53 0.313,-0.524 0.344,-0.513C0.374,-0.501 0.397,-0.485 0.412,-0.465C0.426,-0.445 0.436,-0.418 0.442,-0.385L0.356,-0.373C0.352,-0.4 0.341,-0.421 0.322,-0.436C0.303,-0.451 0.277,-0.458 0.243,-0.458C0.202,-0.458 0.174,-0.451 0.156,-0.438C0.139,-0.425 0.13,-0.409 0.13,-0.391C0.13,-0.38 0.134,-0.369 0.141,-0.36C0.148,-0.351 0.16,-0.343 0.175,-0.337C0.184,-0.334 0.209,-0.326 0.252,-0.314C0.315,-0.298 0.358,-0.284 0.383,-0.274C0.407,-0.263 0.426,-0.248 0.44,-0.228C0.454,-0.207 0.461,-0.182 0.461,-0.152C0.461,-0.123 0.453,-0.095 0.436,-0.07C0.419,-0.044 0.394,-0.024 0.362,-0.01C0.33,0.005 0.293,0.012 0.252,0.012C0.185,0.012 0.134,-0.002 0.098,-0.03C0.063,-0.058 0.041,-0.1 0.031,-0.155Z" style="fill:rgb(109,110,113);fill-rule:nonzero;"/>
                </g>
                <g transform="matrix(20,0,0,20,527.887,288.579)">
                    <path d="M0.421,-0.167L0.512,-0.156C0.497,-0.103 0.471,-0.062 0.432,-0.032C0.393,-0.003 0.344,0.012 0.284,0.012C0.208,0.012 0.148,-0.012 0.103,-0.058C0.059,-0.105 0.037,-0.171 0.037,-0.255C0.037,-0.342 0.059,-0.41 0.104,-0.458C0.149,-0.506 0.207,-0.53 0.279,-0.53C0.348,-0.53 0.405,-0.507 0.449,-0.459C0.493,-0.412 0.515,-0.346 0.515,-0.26C0.515,-0.255 0.514,-0.247 0.514,-0.237L0.127,-0.237C0.131,-0.18 0.147,-0.136 0.176,-0.106C0.205,-0.076 0.241,-0.061 0.284,-0.061C0.316,-0.061 0.344,-0.069 0.367,-0.086C0.389,-0.103 0.408,-0.13 0.421,-0.167ZM0.132,-0.309L0.422,-0.309C0.418,-0.353 0.407,-0.385 0.389,-0.407C0.361,-0.441 0.324,-0.458 0.28,-0.458C0.239,-0.458 0.205,-0.444 0.178,-0.417C0.15,-0.39 0.135,-0.354 0.132,-0.309Z" style="fill:rgb(109,110,113);fill-rule:nonzero;"/>
                </g>
                <g transform="matrix(20,0,0,20,544.567,288.579)">
                    <path d="M0.045,-0.23L0.134,-0.238C0.139,-0.202 0.148,-0.173 0.164,-0.15C0.179,-0.127 0.203,-0.108 0.236,-0.094C0.268,-0.08 0.305,-0.073 0.346,-0.073C0.382,-0.073 0.414,-0.078 0.441,-0.089C0.469,-0.1 0.49,-0.114 0.503,-0.133C0.517,-0.152 0.523,-0.172 0.523,-0.194C0.523,-0.217 0.517,-0.236 0.504,-0.253C0.491,-0.27 0.469,-0.284 0.439,-0.295C0.42,-0.303 0.378,-0.315 0.312,-0.33C0.246,-0.346 0.2,-0.361 0.174,-0.375C0.14,-0.393 0.114,-0.415 0.097,-0.442C0.081,-0.468 0.072,-0.498 0.072,-0.531C0.072,-0.567 0.083,-0.601 0.103,-0.632C0.124,-0.663 0.153,-0.687 0.193,-0.704C0.232,-0.72 0.276,-0.728 0.324,-0.728C0.377,-0.728 0.424,-0.719 0.465,-0.702C0.505,-0.685 0.536,-0.66 0.558,-0.627C0.58,-0.594 0.592,-0.556 0.593,-0.514L0.502,-0.507C0.498,-0.553 0.481,-0.587 0.453,-0.61C0.425,-0.633 0.383,-0.645 0.328,-0.645C0.271,-0.645 0.229,-0.634 0.203,-0.613C0.177,-0.592 0.164,-0.567 0.164,-0.537C0.164,-0.511 0.173,-0.49 0.191,-0.474C0.21,-0.457 0.257,-0.44 0.334,-0.423C0.411,-0.405 0.464,-0.39 0.493,-0.377C0.534,-0.358 0.565,-0.333 0.585,-0.304C0.605,-0.274 0.615,-0.241 0.615,-0.202C0.615,-0.164 0.604,-0.128 0.582,-0.094C0.56,-0.061 0.529,-0.035 0.488,-0.016C0.447,0.003 0.401,0.012 0.35,0.012C0.285,0.012 0.231,0.003 0.187,-0.016C0.143,-0.035 0.109,-0.063 0.084,-0.101C0.059,-0.139 0.046,-0.182 0.045,-0.23Z" style="fill:rgb(109,110,113);fill-rule:nonzero;"/>
                </g>
                <g transform="matrix(20,0,0,20,557.906,288.579)">
                    <path d="M0.033,-0.259C0.033,-0.355 0.06,-0.426 0.113,-0.473C0.158,-0.511 0.212,-0.53 0.276,-0.53C0.348,-0.53 0.406,-0.507 0.451,-0.46C0.496,-0.413 0.519,-0.349 0.519,-0.267C0.519,-0.2 0.509,-0.147 0.489,-0.109C0.469,-0.071 0.44,-0.041 0.402,-0.02C0.363,0.001 0.322,0.012 0.276,0.012C0.204,0.012 0.145,-0.012 0.1,-0.058C0.056,-0.105 0.033,-0.172 0.033,-0.259ZM0.124,-0.259C0.124,-0.193 0.138,-0.143 0.167,-0.11C0.196,-0.077 0.232,-0.061 0.276,-0.061C0.32,-0.061 0.356,-0.077 0.385,-0.11C0.414,-0.144 0.429,-0.194 0.429,-0.262C0.429,-0.326 0.414,-0.375 0.385,-0.408C0.356,-0.441 0.32,-0.458 0.276,-0.458C0.232,-0.458 0.196,-0.441 0.167,-0.408C0.138,-0.375 0.124,-0.326 0.124,-0.259Z" style="fill:rgb(109,110,113);fill-rule:nonzero;"/>
                </g>
                <g transform="matrix(20,0,0,20,569.03,288.579)">
                    <rect x="0.064" y="-0.716" width="0.088" height="0.716" style="fill:rgb(109,110,113);fill-rule:nonzero;"/>
                </g>
                <g transform="matrix(20,0,0,20,573.473,288.579)">
                    <path d="M0.406,-0L0.406,-0.076C0.365,-0.018 0.311,0.012 0.241,0.012C0.211,0.012 0.182,0.006 0.156,-0.006C0.129,-0.018 0.109,-0.032 0.096,-0.05C0.084,-0.068 0.075,-0.09 0.069,-0.115C0.066,-0.132 0.064,-0.16 0.064,-0.197L0.064,-0.519L0.152,-0.519L0.152,-0.231C0.152,-0.185 0.154,-0.154 0.157,-0.138C0.163,-0.115 0.174,-0.097 0.192,-0.084C0.21,-0.071 0.232,-0.064 0.259,-0.064C0.285,-0.064 0.31,-0.071 0.333,-0.084C0.356,-0.098 0.372,-0.116 0.382,-0.139C0.392,-0.163 0.396,-0.196 0.396,-0.241L0.396,-0.519L0.484,-0.519L0.484,-0L0.406,-0Z" style="fill:rgb(109,110,113);fill-rule:nonzero;"/>
                </g>
                <g transform="matrix(20,0,0,20,584.596,288.579)">
                    <path d="M0.258,-0.079L0.271,-0.001C0.246,0.004 0.224,0.007 0.204,0.007C0.172,0.007 0.147,0.002 0.13,-0.008C0.112,-0.018 0.1,-0.032 0.093,-0.048C0.086,-0.065 0.082,-0.099 0.082,-0.152L0.082,-0.45L0.018,-0.45L0.018,-0.519L0.082,-0.519L0.082,-0.647L0.169,-0.7L0.169,-0.519L0.258,-0.519L0.258,-0.45L0.169,-0.45L0.169,-0.147C0.169,-0.122 0.171,-0.106 0.174,-0.099C0.177,-0.091 0.182,-0.086 0.189,-0.082C0.196,-0.077 0.206,-0.075 0.219,-0.075C0.229,-0.075 0.242,-0.076 0.258,-0.079Z" style="fill:rgb(109,110,113);fill-rule:nonzero;"/>
                </g>
                <g transform="matrix(20,0,0,20,590.153,288.579)">
                    <path d="M0.066,-0.615L0.066,-0.716L0.154,-0.716L0.154,-0.615L0.066,-0.615ZM0.066,-0L0.066,-0.519L0.154,-0.519L0.154,-0L0.066,-0Z" style="fill:rgb(109,110,113);fill-rule:nonzero;"/>
                </g>
                <g transform="matrix(20,0,0,20,594.596,288.579)">
                    <path d="M0.033,-0.259C0.033,-0.355 0.06,-0.426 0.113,-0.473C0.158,-0.511 0.212,-0.53 0.276,-0.53C0.348,-0.53 0.406,-0.507 0.451,-0.46C0.496,-0.413 0.519,-0.349 0.519,-0.267C0.519,-0.2 0.509,-0.147 0.489,-0.109C0.469,-0.071 0.44,-0.041 0.402,-0.02C0.363,0.001 0.322,0.012 0.276,0.012C0.204,0.012 0.145,-0.012 0.1,-0.058C0.056,-0.105 0.033,-0.172 0.033,-0.259ZM0.124,-0.259C0.124,-0.193 0.138,-0.143 0.167,-0.11C0.196,-0.077 0.232,-0.061 0.276,-0.061C0.32,-0.061 0.356,-0.077 0.385,-0.11C0.414,-0.144 0.429,-0.194 0.429,-0.262C0.429,-0.326 0.414,-0.375 0.385,-0.408C0.356,-0.441 0.32,-0.458 0.276,-0.458C0.232,-0.458 0.196,-0.441 0.167,-0.408C0.138,-0.375 0.124,-0.326 0.124,-0.259Z" style="fill:rgb(109,110,113);fill-rule:nonzero;"/>
                </g>
                <g transform="matrix(20,0,0,20,605.719,288.579)">
                    <path d="M0.066,-0L0.066,-0.519L0.145,-0.519L0.145,-0.445C0.183,-0.502 0.238,-0.53 0.31,-0.53C0.341,-0.53 0.37,-0.525 0.396,-0.513C0.422,-0.502 0.442,-0.487 0.455,-0.469C0.468,-0.451 0.477,-0.429 0.482,-0.404C0.486,-0.388 0.487,-0.36 0.487,-0.319L0.487,-0L0.399,-0L0.399,-0.315C0.399,-0.351 0.396,-0.378 0.389,-0.396C0.382,-0.413 0.37,-0.428 0.353,-0.438C0.335,-0.449 0.315,-0.454 0.292,-0.454C0.254,-0.454 0.222,-0.442 0.195,-0.418C0.167,-0.395 0.154,-0.35 0.154,-0.283L0.154,-0L0.066,-0Z" style="fill:rgb(109,110,113);fill-rule:nonzero;"/>
                </g>
                <g transform="matrix(20,0,0,20,622.399,288.579)">
                    <path d="M0.048,-0.349C0.048,-0.467 0.08,-0.56 0.144,-0.628C0.208,-0.695 0.29,-0.729 0.391,-0.729C0.457,-0.729 0.517,-0.713 0.57,-0.681C0.623,-0.65 0.663,-0.606 0.691,-0.549C0.719,-0.493 0.733,-0.429 0.733,-0.357C0.733,-0.284 0.718,-0.219 0.689,-0.162C0.66,-0.105 0.618,-0.061 0.564,-0.032C0.511,-0.003 0.453,0.012 0.391,0.012C0.323,0.012 0.263,-0.004 0.21,-0.037C0.157,-0.069 0.117,-0.114 0.089,-0.17C0.062,-0.226 0.048,-0.286 0.048,-0.349ZM0.146,-0.347C0.146,-0.261 0.169,-0.193 0.216,-0.143C0.262,-0.094 0.32,-0.069 0.39,-0.069C0.461,-0.069 0.52,-0.094 0.566,-0.144C0.612,-0.194 0.635,-0.265 0.635,-0.357C0.635,-0.416 0.625,-0.467 0.606,-0.51C0.586,-0.553 0.557,-0.587 0.519,-0.611C0.481,-0.635 0.439,-0.647 0.392,-0.647C0.325,-0.647 0.267,-0.624 0.219,-0.578C0.17,-0.532 0.146,-0.455 0.146,-0.347Z" style="fill:rgb(109,110,113);fill-rule:nonzero;"/>
                </g>
                <g transform="matrix(20,0,0,20,637.955,288.579)">
                    <path d="M0.066,-0L0.066,-0.519L0.145,-0.519L0.145,-0.445C0.183,-0.502 0.238,-0.53 0.31,-0.53C0.341,-0.53 0.37,-0.525 0.396,-0.513C0.422,-0.502 0.442,-0.487 0.455,-0.469C0.468,-0.451 0.477,-0.429 0.482,-0.404C0.486,-0.388 0.487,-0.36 0.487,-0.319L0.487,-0L0.399,-0L0.399,-0.315C0.399,-0.351 0.396,-0.378 0.389,-0.396C0.382,-0.413 0.37,-0.428 0.353,-0.438C0.335,-0.449 0.315,-0.454 0.292,-0.454C0.254,-0.454 0.222,-0.442 0.195,-0.418C0.167,-0.395 0.154,-0.35 0.154,-0.283L0.154,-0L0.066,-0Z" style="fill:rgb(109,110,113);fill-rule:nonzero;"/>
                </g>
                <g transform="matrix(20,0,0,20,654.635,288.579)">
                    <path d="M0.588,-0.251L0.683,-0.227C0.663,-0.149 0.627,-0.09 0.575,-0.049C0.524,-0.008 0.461,0.012 0.386,0.012C0.309,0.012 0.246,-0.003 0.198,-0.035C0.15,-0.066 0.113,-0.112 0.088,-0.171C0.062,-0.231 0.05,-0.295 0.05,-0.363C0.05,-0.438 0.064,-0.503 0.093,-0.558C0.121,-0.614 0.162,-0.656 0.214,-0.685C0.267,-0.714 0.325,-0.728 0.388,-0.728C0.459,-0.728 0.52,-0.71 0.568,-0.673C0.617,-0.637 0.651,-0.586 0.67,-0.52L0.577,-0.498C0.561,-0.55 0.536,-0.588 0.505,-0.611C0.473,-0.635 0.434,-0.647 0.386,-0.647C0.331,-0.647 0.285,-0.634 0.248,-0.607C0.211,-0.581 0.185,-0.546 0.17,-0.501C0.155,-0.457 0.147,-0.411 0.147,-0.364C0.147,-0.303 0.156,-0.25 0.174,-0.204C0.192,-0.159 0.219,-0.125 0.257,-0.103C0.294,-0.08 0.335,-0.069 0.378,-0.069C0.431,-0.069 0.476,-0.084 0.513,-0.115C0.55,-0.145 0.575,-0.191 0.588,-0.251Z" style="fill:rgb(109,110,113);fill-rule:nonzero;"/>
                </g>
                <g transform="matrix(20,0,0,20,669.078,288.579)">
                    <path d="M0.066,-0L0.066,-0.716L0.154,-0.716L0.154,-0.459C0.195,-0.507 0.247,-0.53 0.309,-0.53C0.347,-0.53 0.381,-0.523 0.409,-0.508C0.438,-0.492 0.458,-0.472 0.47,-0.445C0.482,-0.418 0.488,-0.379 0.488,-0.329L0.488,-0L0.4,-0L0.4,-0.329C0.4,-0.373 0.391,-0.405 0.372,-0.425C0.353,-0.445 0.326,-0.455 0.291,-0.455C0.265,-0.455 0.24,-0.448 0.218,-0.434C0.195,-0.421 0.178,-0.403 0.168,-0.379C0.159,-0.356 0.154,-0.324 0.154,-0.284L0.154,-0L0.066,-0Z" style="fill:rgb(109,110,113);fill-rule:nonzero;"/>
                </g>
                <g transform="matrix(20,0,0,20,680.201,288.579)">
                    <path d="M0.404,-0.064C0.372,-0.036 0.34,-0.017 0.31,-0.005C0.28,0.006 0.248,0.012 0.213,0.012C0.156,0.012 0.113,-0.002 0.082,-0.03C0.051,-0.058 0.036,-0.093 0.036,-0.137C0.036,-0.162 0.042,-0.185 0.053,-0.206C0.065,-0.227 0.08,-0.244 0.099,-0.257C0.118,-0.27 0.139,-0.279 0.162,-0.286C0.179,-0.29 0.205,-0.295 0.24,-0.299C0.311,-0.307 0.363,-0.317 0.397,-0.329C0.397,-0.341 0.397,-0.349 0.397,-0.352C0.397,-0.388 0.389,-0.413 0.373,-0.428C0.35,-0.448 0.317,-0.458 0.272,-0.458C0.231,-0.458 0.201,-0.45 0.181,-0.436C0.161,-0.421 0.147,-0.396 0.137,-0.359L0.051,-0.371C0.059,-0.407 0.072,-0.437 0.09,-0.46C0.108,-0.482 0.134,-0.5 0.167,-0.512C0.201,-0.524 0.241,-0.53 0.285,-0.53C0.329,-0.53 0.365,-0.525 0.393,-0.515C0.421,-0.504 0.441,-0.491 0.454,-0.475C0.467,-0.46 0.476,-0.44 0.481,-0.416C0.484,-0.401 0.486,-0.374 0.486,-0.334L0.486,-0.217C0.486,-0.136 0.488,-0.084 0.491,-0.062C0.495,-0.041 0.503,-0.02 0.514,-0L0.422,-0C0.413,-0.018 0.407,-0.04 0.404,-0.064ZM0.397,-0.26C0.365,-0.247 0.317,-0.236 0.253,-0.227C0.217,-0.222 0.192,-0.216 0.177,-0.209C0.162,-0.203 0.15,-0.193 0.142,-0.181C0.134,-0.168 0.13,-0.154 0.13,-0.139C0.13,-0.116 0.139,-0.096 0.156,-0.081C0.174,-0.065 0.2,-0.057 0.234,-0.057C0.268,-0.057 0.298,-0.065 0.325,-0.079C0.351,-0.094 0.37,-0.114 0.383,-0.14C0.392,-0.16 0.397,-0.189 0.397,-0.228L0.397,-0.26Z" style="fill:rgb(109,110,113);fill-rule:nonzero;"/>
                </g>
                <g transform="matrix(20,0,0,20,691.324,288.579)">
                    <path d="M0.066,-0.615L0.066,-0.716L0.154,-0.716L0.154,-0.615L0.066,-0.615ZM0.066,-0L0.066,-0.519L0.154,-0.519L0.154,-0L0.066,-0Z" style="fill:rgb(109,110,113);fill-rule:nonzero;"/>
                </g>
                <g transform="matrix(20,0,0,20,695.768,288.579)">
                    <path d="M0.066,-0L0.066,-0.519L0.145,-0.519L0.145,-0.445C0.183,-0.502 0.238,-0.53 0.31,-0.53C0.341,-0.53 0.37,-0.525 0.396,-0.513C0.422,-0.502 0.442,-0.487 0.455,-0.469C0.468,-0.451 0.477,-0.429 0.482,-0.404C0.486,-0.388 0.487,-0.36 0.487,-0.319L0.487,-0L0.399,-0L0.399,-0.315C0.399,-0.351 0.396,-0.378 0.389,-0.396C0.382,-0.413 0.37,-0.428 0.353,-0.438C0.335,-0.449 0.315,-0.454 0.292,-0.454C0.254,-0.454 0.222,-0.442 0.195,-0.418C0.167,-0.395 0.154,-0.35 0.154,-0.283L0.154,-0L0.066,-0Z" style="fill:rgb(109,110,113);fill-rule:nonzero;"/>
                </g>
            </g>
            <g transform="matrix(6.33229,0,0,-6.33229,-2761.37,738.415)">
                <g transform="matrix(12,0,0,12,500.839,65.3528)">
                    <path d="M0.622,-0.215C0.622,-0.172 0.611,-0.133 0.589,-0.098C0.566,-0.064 0.534,-0.037 0.491,-0.017C0.448,0.002 0.397,0.012 0.338,0.012C0.267,0.012 0.209,-0.001 0.163,-0.028C0.131,-0.047 0.104,-0.073 0.084,-0.105C0.063,-0.137 0.053,-0.168 0.053,-0.198C0.053,-0.216 0.059,-0.231 0.072,-0.243C0.084,-0.256 0.099,-0.262 0.118,-0.262C0.133,-0.262 0.146,-0.257 0.157,-0.248C0.168,-0.238 0.177,-0.223 0.184,-0.204C0.193,-0.181 0.203,-0.162 0.214,-0.147C0.224,-0.132 0.239,-0.119 0.258,-0.109C0.278,-0.099 0.303,-0.094 0.334,-0.094C0.377,-0.094 0.412,-0.104 0.439,-0.124C0.466,-0.144 0.479,-0.169 0.479,-0.199C0.479,-0.223 0.472,-0.242 0.457,-0.257C0.443,-0.272 0.424,-0.283 0.401,-0.291C0.378,-0.299 0.347,-0.307 0.309,-0.316C0.258,-0.328 0.215,-0.342 0.18,-0.358C0.145,-0.374 0.118,-0.396 0.097,-0.424C0.077,-0.452 0.067,-0.486 0.067,-0.528C0.067,-0.567 0.078,-0.602 0.099,-0.633C0.121,-0.663 0.152,-0.687 0.192,-0.703C0.233,-0.72 0.281,-0.728 0.336,-0.728C0.38,-0.728 0.418,-0.723 0.45,-0.712C0.482,-0.701 0.509,-0.686 0.53,-0.668C0.551,-0.65 0.566,-0.631 0.576,-0.611C0.586,-0.591 0.591,-0.572 0.591,-0.553C0.591,-0.536 0.585,-0.52 0.573,-0.507C0.56,-0.493 0.545,-0.486 0.527,-0.486C0.51,-0.486 0.498,-0.49 0.489,-0.498C0.48,-0.507 0.471,-0.52 0.461,-0.539C0.448,-0.566 0.432,-0.587 0.414,-0.602C0.396,-0.617 0.367,-0.625 0.326,-0.625C0.289,-0.625 0.259,-0.617 0.236,-0.6C0.213,-0.584 0.201,-0.564 0.201,-0.541C0.201,-0.527 0.205,-0.514 0.213,-0.504C0.221,-0.493 0.231,-0.485 0.245,-0.477C0.259,-0.47 0.273,-0.464 0.287,-0.459C0.301,-0.455 0.324,-0.449 0.356,-0.441C0.396,-0.431 0.433,-0.421 0.466,-0.41C0.498,-0.398 0.526,-0.384 0.549,-0.368C0.572,-0.352 0.59,-0.331 0.603,-0.306C0.616,-0.281 0.622,-0.251 0.622,-0.215Z" style="fill:rgb(65,64,66);fill-rule:nonzero;"/>
                </g>
                <g transform="matrix(12,0,0,12,508.843,65.3528)">
                    <path d="M0.192,-0.455L0.192,-0.439C0.217,-0.47 0.243,-0.493 0.27,-0.507C0.297,-0.522 0.328,-0.529 0.362,-0.529C0.403,-0.529 0.441,-0.518 0.475,-0.497C0.51,-0.476 0.537,-0.445 0.557,-0.404C0.577,-0.364 0.587,-0.315 0.587,-0.26C0.587,-0.219 0.581,-0.181 0.57,-0.147C0.558,-0.112 0.542,-0.084 0.522,-0.06C0.502,-0.037 0.478,-0.019 0.45,-0.007C0.423,0.006 0.393,0.012 0.362,0.012C0.324,0.012 0.292,0.005 0.266,-0.011C0.24,-0.026 0.215,-0.049 0.192,-0.078L0.192,0.122C0.192,0.181 0.171,0.21 0.128,0.21C0.103,0.21 0.086,0.202 0.078,0.187C0.07,0.172 0.066,0.15 0.066,0.121L0.066,-0.454C0.066,-0.479 0.071,-0.498 0.083,-0.511C0.094,-0.524 0.109,-0.53 0.128,-0.53C0.147,-0.53 0.162,-0.523 0.174,-0.51C0.186,-0.498 0.192,-0.479 0.192,-0.455ZM0.453,-0.261C0.453,-0.296 0.448,-0.327 0.437,-0.352C0.426,-0.377 0.411,-0.396 0.392,-0.41C0.373,-0.423 0.352,-0.43 0.329,-0.43C0.292,-0.43 0.261,-0.416 0.236,-0.387C0.211,-0.358 0.198,-0.315 0.198,-0.259C0.198,-0.206 0.211,-0.164 0.236,-0.135C0.261,-0.106 0.292,-0.091 0.329,-0.091C0.351,-0.091 0.372,-0.097 0.391,-0.11C0.41,-0.123 0.425,-0.142 0.436,-0.168C0.447,-0.194 0.453,-0.225 0.453,-0.261Z" style="fill:rgb(65,64,66);fill-rule:nonzero;"/>
                </g>
                <g transform="matrix(12,0,0,12,516.343,65.3528)">
                    <path d="M0.202,-0.454L0.202,-0.069C0.202,-0.042 0.196,-0.022 0.183,-0.008C0.17,0.005 0.154,0.012 0.135,0.012C0.115,0.012 0.099,0.005 0.087,-0.009C0.075,-0.023 0.069,-0.043 0.069,-0.069L0.069,-0.45C0.069,-0.477 0.075,-0.496 0.087,-0.51C0.099,-0.523 0.115,-0.53 0.135,-0.53C0.154,-0.53 0.17,-0.523 0.183,-0.51C0.196,-0.496 0.202,-0.478 0.202,-0.454ZM0.136,-0.592C0.118,-0.592 0.102,-0.597 0.089,-0.609C0.075,-0.62 0.069,-0.636 0.069,-0.657C0.069,-0.676 0.076,-0.692 0.089,-0.704C0.103,-0.716 0.118,-0.722 0.136,-0.722C0.153,-0.722 0.169,-0.717 0.182,-0.706C0.195,-0.694 0.202,-0.678 0.202,-0.657C0.202,-0.637 0.196,-0.621 0.183,-0.609C0.17,-0.598 0.154,-0.592 0.136,-0.592Z" style="fill:rgb(65,64,66);fill-rule:nonzero;"/>
                </g>
                <g transform="matrix(12,0,0,12,519.595,65.3528)">
                    <path d="M0.401,-0.049L0.283,-0.242L0.211,-0.174L0.211,-0.068C0.211,-0.042 0.204,-0.022 0.191,-0.009C0.177,0.005 0.162,0.012 0.144,0.012C0.124,0.012 0.107,0.005 0.096,-0.008C0.084,-0.022 0.078,-0.042 0.078,-0.069L0.078,-0.637C0.078,-0.667 0.084,-0.689 0.095,-0.705C0.107,-0.72 0.123,-0.728 0.144,-0.728C0.165,-0.728 0.181,-0.721 0.193,-0.707C0.205,-0.693 0.211,-0.672 0.211,-0.645L0.211,-0.322L0.361,-0.479C0.379,-0.499 0.394,-0.512 0.403,-0.519C0.413,-0.526 0.425,-0.53 0.439,-0.53C0.456,-0.53 0.469,-0.524 0.48,-0.514C0.492,-0.503 0.497,-0.49 0.497,-0.474C0.497,-0.455 0.479,-0.429 0.443,-0.396L0.372,-0.331L0.509,-0.116C0.519,-0.1 0.526,-0.088 0.531,-0.08C0.535,-0.072 0.537,-0.064 0.537,-0.056C0.537,-0.035 0.531,-0.018 0.52,-0.006C0.508,0.006 0.493,0.012 0.474,0.012C0.458,0.012 0.445,0.008 0.437,-0.001C0.428,-0.01 0.416,-0.026 0.401,-0.049Z" style="fill:rgb(65,64,66);fill-rule:nonzero;"/>
                </g>
                <g transform="matrix(12,0,0,12,526.016,65.3528)">
                    <path d="M0.441,-0.226L0.18,-0.226C0.181,-0.196 0.187,-0.169 0.198,-0.146C0.21,-0.123 0.226,-0.105 0.246,-0.094C0.266,-0.082 0.287,-0.076 0.311,-0.076C0.327,-0.076 0.342,-0.078 0.355,-0.082C0.368,-0.086 0.381,-0.091 0.393,-0.099C0.405,-0.107 0.417,-0.116 0.427,-0.125C0.438,-0.134 0.451,-0.146 0.468,-0.162C0.475,-0.168 0.484,-0.171 0.497,-0.171C0.511,-0.171 0.522,-0.167 0.53,-0.16C0.539,-0.152 0.543,-0.142 0.543,-0.128C0.543,-0.116 0.538,-0.102 0.529,-0.086C0.519,-0.07 0.505,-0.054 0.486,-0.039C0.467,-0.024 0.443,-0.012 0.414,-0.002C0.385,0.007 0.352,0.012 0.315,0.012C0.229,0.012 0.163,-0.012 0.115,-0.061C0.068,-0.11 0.044,-0.176 0.044,-0.26C0.044,-0.299 0.05,-0.336 0.062,-0.369C0.073,-0.403 0.09,-0.432 0.113,-0.456C0.135,-0.48 0.163,-0.499 0.196,-0.511C0.229,-0.524 0.265,-0.531 0.305,-0.531C0.357,-0.531 0.402,-0.52 0.439,-0.498C0.476,-0.476 0.504,-0.447 0.523,-0.413C0.542,-0.378 0.551,-0.342 0.551,-0.306C0.551,-0.273 0.541,-0.251 0.522,-0.241C0.503,-0.231 0.476,-0.226 0.441,-0.226ZM0.18,-0.302L0.422,-0.302C0.419,-0.347 0.406,-0.381 0.385,-0.404C0.364,-0.427 0.336,-0.438 0.301,-0.438C0.268,-0.438 0.24,-0.427 0.219,-0.404C0.198,-0.381 0.185,-0.347 0.18,-0.302Z" style="fill:rgb(65,64,66);fill-rule:nonzero;"/>
                </g>
                <g transform="matrix(12,0,0,12,536.147,65.3528)">
                    <path d="M0.55,-0.604L0.223,-0.604L0.223,-0.428L0.524,-0.428C0.546,-0.428 0.563,-0.423 0.573,-0.413C0.584,-0.403 0.59,-0.39 0.59,-0.374C0.59,-0.358 0.584,-0.344 0.574,-0.334C0.563,-0.324 0.546,-0.319 0.524,-0.319L0.223,-0.319L0.223,-0.115L0.561,-0.115C0.584,-0.115 0.601,-0.11 0.613,-0.099C0.624,-0.089 0.63,-0.075 0.63,-0.057C0.63,-0.04 0.624,-0.026 0.613,-0.016C0.601,-0.005 0.584,-0 0.561,-0L0.167,-0C0.135,-0 0.113,-0.007 0.099,-0.021C0.085,-0.035 0.078,-0.058 0.078,-0.089L0.078,-0.627C0.078,-0.648 0.081,-0.665 0.087,-0.678C0.094,-0.691 0.103,-0.701 0.116,-0.707C0.13,-0.713 0.146,-0.716 0.167,-0.716L0.55,-0.716C0.573,-0.716 0.59,-0.711 0.601,-0.7C0.613,-0.69 0.618,-0.677 0.618,-0.66C0.618,-0.643 0.613,-0.63 0.601,-0.619C0.59,-0.609 0.573,-0.604 0.55,-0.604Z" style="fill:rgb(65,64,66);fill-rule:nonzero;"/>
                </g>
                <g transform="matrix(12,0,0,12,544.151,65.3528)">
                    <path d="M0.19,-0.456L0.19,-0.44C0.213,-0.471 0.239,-0.494 0.267,-0.508C0.295,-0.523 0.327,-0.53 0.363,-0.53C0.398,-0.53 0.429,-0.522 0.457,-0.507C0.485,-0.492 0.505,-0.47 0.519,-0.442C0.528,-0.426 0.534,-0.408 0.536,-0.389C0.539,-0.37 0.54,-0.346 0.54,-0.317L0.54,-0.069C0.54,-0.042 0.534,-0.022 0.522,-0.008C0.51,0.005 0.494,0.012 0.474,0.012C0.454,0.012 0.438,0.005 0.426,-0.009C0.413,-0.023 0.407,-0.043 0.407,-0.069L0.407,-0.291C0.407,-0.335 0.401,-0.369 0.389,-0.392C0.377,-0.415 0.352,-0.427 0.316,-0.427C0.292,-0.427 0.271,-0.42 0.251,-0.406C0.231,-0.391 0.217,-0.372 0.208,-0.347C0.201,-0.327 0.198,-0.29 0.198,-0.236L0.198,-0.069C0.198,-0.042 0.192,-0.022 0.179,-0.008C0.167,0.005 0.151,0.012 0.131,0.012C0.112,0.012 0.096,0.005 0.083,-0.009C0.071,-0.023 0.065,-0.043 0.065,-0.069L0.065,-0.454C0.065,-0.479 0.07,-0.498 0.082,-0.511C0.093,-0.524 0.108,-0.53 0.127,-0.53C0.139,-0.53 0.149,-0.527 0.159,-0.521C0.168,-0.516 0.176,-0.508 0.181,-0.497C0.187,-0.486 0.19,-0.472 0.19,-0.456Z" style="fill:rgb(65,64,66);fill-rule:nonzero;"/>
                </g>
                <g transform="matrix(12,0,0,12,551.399,65.3528)">
                    <path d="M0.559,-0.432L0.559,-0.045C0.559,-0.001 0.554,0.037 0.545,0.069C0.535,0.101 0.52,0.128 0.5,0.148C0.479,0.169 0.451,0.185 0.418,0.195C0.384,0.205 0.342,0.21 0.292,0.21C0.246,0.21 0.205,0.204 0.169,0.191C0.133,0.178 0.105,0.161 0.085,0.141C0.066,0.121 0.056,0.1 0.056,0.078C0.056,0.062 0.062,0.049 0.073,0.038C0.084,0.028 0.097,0.023 0.113,0.023C0.132,0.023 0.149,0.032 0.164,0.049C0.171,0.058 0.179,0.066 0.186,0.075C0.194,0.084 0.202,0.092 0.212,0.098C0.221,0.105 0.232,0.109 0.245,0.113C0.258,0.116 0.273,0.117 0.29,0.117C0.325,0.117 0.351,0.112 0.37,0.103C0.389,0.093 0.403,0.08 0.41,0.062C0.418,0.045 0.423,0.027 0.424,0.007C0.425,-0.013 0.426,-0.044 0.427,-0.088C0.406,-0.059 0.383,-0.037 0.356,-0.022C0.329,-0.007 0.297,-0 0.26,-0C0.215,-0 0.176,-0.011 0.143,-0.034C0.109,-0.057 0.084,-0.089 0.066,-0.13C0.048,-0.171 0.039,-0.218 0.039,-0.272C0.039,-0.312 0.045,-0.348 0.055,-0.38C0.066,-0.413 0.082,-0.44 0.102,-0.462C0.122,-0.484 0.146,-0.501 0.172,-0.512C0.198,-0.523 0.227,-0.529 0.259,-0.529C0.297,-0.529 0.329,-0.522 0.357,-0.507C0.385,-0.493 0.41,-0.47 0.434,-0.439L0.434,-0.457C0.434,-0.48 0.44,-0.498 0.451,-0.511C0.463,-0.523 0.477,-0.53 0.495,-0.53C0.521,-0.53 0.538,-0.521 0.546,-0.505C0.555,-0.488 0.559,-0.464 0.559,-0.432ZM0.173,-0.263C0.173,-0.209 0.185,-0.168 0.208,-0.141C0.232,-0.113 0.262,-0.099 0.3,-0.099C0.322,-0.099 0.343,-0.105 0.363,-0.117C0.382,-0.129 0.398,-0.147 0.411,-0.171C0.423,-0.195 0.429,-0.224 0.429,-0.258C0.429,-0.312 0.417,-0.354 0.393,-0.385C0.369,-0.415 0.338,-0.43 0.299,-0.43C0.261,-0.43 0.23,-0.416 0.207,-0.387C0.184,-0.358 0.173,-0.317 0.173,-0.263Z" style="fill:rgb(65,64,66);fill-rule:nonzero;"/>
                </g>
                <g transform="matrix(12,0,0,12,558.899,65.3528)">
                    <path d="M0.202,-0.454L0.202,-0.069C0.202,-0.042 0.196,-0.022 0.183,-0.008C0.17,0.005 0.154,0.012 0.135,0.012C0.115,0.012 0.099,0.005 0.087,-0.009C0.075,-0.023 0.069,-0.043 0.069,-0.069L0.069,-0.45C0.069,-0.477 0.075,-0.496 0.087,-0.51C0.099,-0.523 0.115,-0.53 0.135,-0.53C0.154,-0.53 0.17,-0.523 0.183,-0.51C0.196,-0.496 0.202,-0.478 0.202,-0.454ZM0.136,-0.592C0.118,-0.592 0.102,-0.597 0.089,-0.609C0.075,-0.62 0.069,-0.636 0.069,-0.657C0.069,-0.676 0.076,-0.692 0.089,-0.704C0.103,-0.716 0.118,-0.722 0.136,-0.722C0.153,-0.722 0.169,-0.717 0.182,-0.706C0.195,-0.694 0.202,-0.678 0.202,-0.657C0.202,-0.637 0.196,-0.621 0.183,-0.609C0.17,-0.598 0.154,-0.592 0.136,-0.592Z" style="fill:rgb(65,64,66);fill-rule:nonzero;"/>
                </g>
                <g transform="matrix(12,0,0,12,562.151,65.3528)">
                    <path d="M0.19,-0.456L0.19,-0.44C0.213,-0.471 0.239,-0.494 0.267,-0.508C0.295,-0.523 0.327,-0.53 0.363,-0.53C0.398,-0.53 0.429,-0.522 0.457,-0.507C0.485,-0.492 0.505,-0.47 0.519,-0.442C0.528,-0.426 0.534,-0.408 0.536,-0.389C0.539,-0.37 0.54,-0.346 0.54,-0.317L0.54,-0.069C0.54,-0.042 0.534,-0.022 0.522,-0.008C0.51,0.005 0.494,0.012 0.474,0.012C0.454,0.012 0.438,0.005 0.426,-0.009C0.413,-0.023 0.407,-0.043 0.407,-0.069L0.407,-0.291C0.407,-0.335 0.401,-0.369 0.389,-0.392C0.377,-0.415 0.352,-0.427 0.316,-0.427C0.292,-0.427 0.271,-0.42 0.251,-0.406C0.231,-0.391 0.217,-0.372 0.208,-0.347C0.201,-0.327 0.198,-0.29 0.198,-0.236L0.198,-0.069C0.198,-0.042 0.192,-0.022 0.179,-0.008C0.167,0.005 0.151,0.012 0.131,0.012C0.112,0.012 0.096,0.005 0.083,-0.009C0.071,-0.023 0.065,-0.043 0.065,-0.069L0.065,-0.454C0.065,-0.479 0.07,-0.498 0.082,-0.511C0.093,-0.524 0.108,-0.53 0.127,-0.53C0.139,-0.53 0.149,-0.527 0.159,-0.521C0.168,-0.516 0.176,-0.508 0.181,-0.497C0.187,-0.486 0.19,-0.472 0.19,-0.456Z" style="fill:rgb(65,64,66);fill-rule:nonzero;"/>
                </g>
                <g transform="matrix(12,0,0,12,569.399,65.3528)">
                    <path d="M0.441,-0.226L0.18,-0.226C0.181,-0.196 0.187,-0.169 0.198,-0.146C0.21,-0.123 0.226,-0.105 0.246,-0.094C0.266,-0.082 0.287,-0.076 0.311,-0.076C0.327,-0.076 0.342,-0.078 0.355,-0.082C0.368,-0.086 0.381,-0.091 0.393,-0.099C0.405,-0.107 0.417,-0.116 0.427,-0.125C0.438,-0.134 0.451,-0.146 0.468,-0.162C0.475,-0.168 0.484,-0.171 0.497,-0.171C0.511,-0.171 0.522,-0.167 0.53,-0.16C0.539,-0.152 0.543,-0.142 0.543,-0.128C0.543,-0.116 0.538,-0.102 0.529,-0.086C0.519,-0.07 0.505,-0.054 0.486,-0.039C0.467,-0.024 0.443,-0.012 0.414,-0.002C0.385,0.007 0.352,0.012 0.315,0.012C0.229,0.012 0.163,-0.012 0.115,-0.061C0.068,-0.11 0.044,-0.176 0.044,-0.26C0.044,-0.299 0.05,-0.336 0.062,-0.369C0.073,-0.403 0.09,-0.432 0.113,-0.456C0.135,-0.48 0.163,-0.499 0.196,-0.511C0.229,-0.524 0.265,-0.531 0.305,-0.531C0.357,-0.531 0.402,-0.52 0.439,-0.498C0.476,-0.476 0.504,-0.447 0.523,-0.413C0.542,-0.378 0.551,-0.342 0.551,-0.306C0.551,-0.273 0.541,-0.251 0.522,-0.241C0.503,-0.231 0.476,-0.226 0.441,-0.226ZM0.18,-0.302L0.422,-0.302C0.419,-0.347 0.406,-0.381 0.385,-0.404C0.364,-0.427 0.336,-0.438 0.301,-0.438C0.268,-0.438 0.24,-0.427 0.219,-0.404C0.198,-0.381 0.185,-0.347 0.18,-0.302Z" style="fill:rgb(65,64,66);fill-rule:nonzero;"/>
                </g>
            </g>
        </g>
    </g>
    <defs>
        <linearGradient id="_Linear1" x1="0" y1="0" x2="1" y2="0" gradientUnits="userSpaceOnUse" gradientTransform="matrix(1.34711e-14,220,-220,1.34711e-14,127.389,18)"><stop offset="0" style="stop-color:rgb(0,255,255);stop-opacity:1"/><stop offset="0.5" style="stop-color:rgb(46,117,255);stop-opacity:1"/><stop offset="1" style="stop-color:rgb(112,0,255);stop-opacity:1"/></linearGradient>
        <linearGradient id="_Linear2" x1="0" y1="0" x2="1" y2="0" gradientUnits="userSpaceOnUse" gradientTransform="matrix(1.34711e-14,220,-220,1.34711e-14,127.389,18)"><stop offset="0" style="stop-color:rgb(0,255,255);stop-opacity:1"/><stop offset="0.5" style="stop-color:rgb(46,117,255);stop-opacity:1"/><stop offset="1" style="stop-color:rgb(112,0,255);stop-opacity:1"/></linearGradient>
    </defs>
</svg>
